<?xml version="1.0" encoding="utf-8"?>
<!-- Generator: Adobe Illustrator 24.3.1, SVG Export Plug-In . SVG Version: 6.00 Build 0)  -->
<svg version="1.1" id="Layer_1" xmlns="http://www.w3.org/2000/svg" xmlns:xlink="http://www.w3.org/1999/xlink" x="0px" y="0px"
	 viewBox="0 0 40 40" style="enable-background:new 0 0 40 40;" xml:space="preserve">
<style type="text/css">
	.st0{fill:#CA9E58;}
</style>
<g>
	<path class="st0" d="M17.6,34.4c-0.7,0-1.3,0-2-0.1c-1.1-0.2-1.8-1.2-1.8-2.3c0-1.6,0-3.3,0-4.9c0-0.4,0.1-0.9,0.2-1.4
		c-0.1,0-0.2,0-0.4,0c-1.2,0-2.4,0-3.5,0c-2,0-3.5,1.5-3.5,3.5c0,0.7,0,1.5,0.1,2.2c0.1,0.9,0.9,1.7,1.8,1.9c0-1.7,0-3.4,0-5.2
		c0.3,0,0.6,0,0.9,0c0,1.7,0,3.5,0,5.2c1.4,0,2.9,0,4.3,0c0,0.3,0,0.6,0,1c-0.1,0-0.2,0-0.3,0c-1.5,0-2.9,0-4.4,0
		c-1.8,0-3.2-1.1-3.4-2.9c-0.1-0.8-0.1-1.6,0-2.4c0-0.4,0.1-0.8,0.2-1.2C6.3,26,8,24.7,9.9,24.7c1.3,0,2.6,0,3.9,0
		c0.5,0,0.8-0.1,1.1-0.5c0.8-1,1.9-1.5,3.2-1.5c1.3,0,2.5,0,3.8,0c1.5,0,2.6,0.6,3.5,1.8c0.1,0.1,0.2,0.2,0.4,0.2c0.2,0,0.4,0,0.5,0
		c1.2,0,2.4,0,3.6,0c2.5,0,4.4,1.9,4.4,4.4c0,0.8,0,1.7-0.1,2.5c-0.2,1.5-1.6,2.7-3.1,2.7c-1.6,0-3.2,0-4.9,0h-0.1
		c0-0.3,0-0.6,0-0.9c1.4,0,2.8,0,4.3,0c0-1.8,0-3.5,0-5.3c0.3,0,0.6,0,1,0c0,1.7,0,3.5,0,5.2c0.8-0.1,1.8-0.9,1.8-1.8
		c0.1-1,0.1-2.1,0-3.1c-0.2-1.5-1.5-2.6-3.1-2.6c-1.3,0-2.6,0-4,0c-0.1,0-0.1,0-0.2,0c0.4,2,0.1,4.1,0.2,6.1c0,1.4-1,2.4-2.4,2.5
		c-0.5,0-0.9,0-1.4,0c0-2.6,0-5.1,0-7.6c0.3,0,0.6,0,0.9,0c0,1.1,0,2.2,0,3.3s0,2.2,0,3.3c1.2,0.2,1.9-0.4,1.9-1.6c0-1.5,0-3,0-4.5
		c0-1.6-1.1-3-2.7-3.3c-0.2,0-0.3-0.1-0.5-0.1c-1.4,0-2.9,0-4.3,0c-1.7,0.1-3,1.5-3.1,3.2c0,1.6,0,3.3,0,4.9c0,0.8,0.6,1.4,1.5,1.4
		c0.1,0,0.3,0,0.5,0c0-2.2,0-4.5,0-6.7c0.3,0,0.6,0,0.9,0C17.6,29.2,17.6,31.8,17.6,34.4z"/>
	<path class="st0" d="M27.7,13.6c0.6-0.6,1.1-1.1,1.7-1.7c0.4-0.4,0.4-0.6,0-0.9c-0.6-0.6-1.2-1.2-1.8-1.8c-0.3-0.3-0.5-0.3-0.9,0
		c-0.5,0.5-1,1.1-1.6,1.6c-0.1,0.1-0.2,0.1-0.3,0.1c-0.5-0.2-0.9-0.5-1.4-0.7s-1-0.3-1.5-0.5c0-0.8,0-1.6,0-2.3
		c0-0.6-0.1-0.7-0.7-0.7c-0.8,0-1.7,0-2.5,0c-0.5,0-0.7,0.2-0.7,0.7c0,0.8,0,1.6,0,2.4c-1,0.2-2,0.6-2.9,1.2c-0.1,0-0.2,0-0.3-0.1
		c-0.5-0.5-1-1-1.6-1.5c-0.4-0.4-0.6-0.3-0.9,0c-0.6,0.6-1.2,1.2-1.8,1.8c-0.3,0.3-0.3,0.5,0,0.9c0.6,0.6,1.2,1.2,1.8,1.7
		c-0.1,0.3-0.3,0.5-0.4,0.8c-0.3,0.7-0.5,1.3-0.8,2c-0.1,0.2-0.1,0.3-0.3,0.3c-0.7,0-1.4,0-2.2,0c-0.5,0-0.6,0.2-0.6,0.6
		c0,0.9,0,1.7,0,2.5c0,0.4,0.1,0.5,0.5,0.7c0,0.3,0,0.6,0,0.9c-0.7,0-1.4-0.6-1.4-1.3c0-1,0-2.1,0-3.1c0-0.7,0.7-1.3,1.4-1.3
		c0.6,0,1.1,0,1.6,0c0.1,0,0.2-0.1,0.3-0.1c0.2-0.6,0.5-1.2,0.7-1.8c-0.4-0.4-0.8-0.8-1.2-1.2c-0.7-0.7-0.7-1.5,0-2.2
		c0.6-0.6,1.2-1.2,1.8-1.8c0.7-0.7,1.5-0.7,2.2,0c0.4,0.4,0.7,0.7,1.1,1.1c0.1,0.1,0.2,0.1,0.3,0.1c0.5-0.2,1-0.4,1.5-0.6
		C16.9,9.3,17,9.3,17,9.1c0-0.5,0-1.1,0-1.6c0-0.8,0.6-1.4,1.4-1.5c1,0,1.9,0,2.9,0c0.8,0,1.4,0.6,1.4,1.4c0,0.5,0,1.1,0,1.6
		c0,0.2,0,0.3,0.2,0.3c0.5,0.2,1,0.4,1.5,0.6c0.2,0.1,0.2,0.1,0.4-0.1c0.4-0.4,0.7-0.7,1.1-1.1c0.7-0.7,1.5-0.7,2.2,0
		c0.6,0.6,1.3,1.3,1.9,1.9c0.6,0.6,0.6,1.5,0,2.1c-0.4,0.4-0.8,0.8-1.2,1.2l0,0c0.2,0.6,0.5,1.2,0.7,1.8c0,0.1,0.2,0.1,0.2,0.1
		c0.5,0,1.1,0,1.6,0c0.9,0,1.5,0.6,1.5,1.5c0,1,0,1.9,0,2.9c0,0.8-0.6,1.4-1.4,1.4c0-0.3,0-0.6,0-0.9c0.4-0.1,0.5-0.4,0.5-0.7
		c0-0.8,0-1.7,0-2.5c0-0.4-0.2-0.6-0.6-0.6c-0.7,0-1.5,0-2.2,0c-0.1,0-0.2,0-0.3-0.2c-0.2-1-0.6-1.9-1.2-2.8
		C27.7,13.7,27.7,13.6,27.7,13.6z"/>
	<path class="st0" d="M14.2,18.5c-0.3,0-0.6,0-0.9,0c0.1-2.3,1-4.2,2.9-5.5c2.3-1.6,4.8-1.7,7.2-0.3c2.2,1.2,3.3,3.2,3.4,5.8
		c-0.2,0-0.4,0-0.5,0s-0.3,0-0.5,0c-0.1-1.9-0.8-3.4-2.2-4.5c-1.1-0.9-2.3-1.3-3.7-1.2C17.1,12.9,14.4,15.1,14.2,18.5z"/>
	<path class="st0" d="M20,22.4c-1.6,0-2.9-1.3-2.9-2.9s1.3-2.9,2.9-2.9s2.9,1.3,2.9,2.9S21.6,22.4,20,22.4z M20,21.4
		c1.1,0,1.9-0.8,1.9-1.9c0-1-0.9-1.9-1.9-1.9s-1.9,0.9-1.9,1.9S19,21.4,20,21.4z"/>
	<path class="st0" d="M11.9,24.3C10.2,24.3,9,23,9,21.4s1.3-2.9,2.9-2.9s2.9,1.3,2.9,2.9C14.7,23,13.4,24.3,11.9,24.3z M11.9,23.3
		c1.1,0,1.9-0.9,1.9-1.9s-0.9-1.9-1.9-1.9c-1.1,0-1.9,0.9-1.9,1.9C9.9,22.5,10.8,23.3,11.9,23.3z"/>
	<path class="st0" d="M28.1,24.3c-1.6,0-2.9-1.3-2.9-2.9s1.3-2.9,2.9-2.9s2.9,1.3,2.9,2.9S29.8,24.3,28.1,24.3z M28.1,23.3
		c1.1,0,1.9-0.9,1.9-1.9s-0.9-1.9-1.9-1.9s-1.9,0.9-1.9,1.9C26.2,22.5,27.1,23.3,28.1,23.3z"/>
	<path class="st0" d="M21.9,34.4c-1.3,0-2.5,0-3.8,0c0-0.3,0-0.6,0-0.9c1.3,0,2.5,0,3.8,0C21.9,33.7,21.9,34,21.9,34.4z"/>
</g>
</svg>
