<?xml version="1.0" encoding="utf-8"?>
<!-- Generator: Adobe Illustrator 24.3.1, SVG Export Plug-In . SVG Version: 6.00 Build 0)  -->
<svg version="1.1" id="Layer_1" xmlns="http://www.w3.org/2000/svg" xmlns:xlink="http://www.w3.org/1999/xlink" x="0px" y="0px"
	 viewBox="0 0 40 40" style="enable-background:new 0 0 40 40;" xml:space="preserve">
<style type="text/css">
	.st0{fill:#CA9E58;}
</style>
<path class="st0" d="M18.2,5.6c1.2,0,2.4,0,3.6,0c0.1,0.5,0.2,1,0.3,1.6c0,0.1,0.1,0.1,0.2,0.2c0.4,0.2,0.9,0.4,1.3,0.6
	c0.2,0,0.4,0,0.5-0.1c0.4-0.3,0.8-0.5,1.2-0.8c0.8,0.8,1.6,1.6,2.4,2.4c0,0.1,0.1,0.2,0,0.3c-0.1,0.3-0.3,0.6-0.4,1
	c1.2,0,2.1,0.5,2.8,1.4c0.5,0.7,0.6,1.6,0.6,2.4c0,1.2-0.4,2.2-1.3,2.9c-0.1,0-0.1,0.2-0.1,0.2s0.1,0.1,0.2,0.1
	c0.5,0.1,1.1,0.2,1.6,0.4c0.5,0.2,1,0.1,1.4-0.2c0.5-0.4,1.2-0.5,1.8-0.4c0,2.3,0,4.5,0,6.8c0,0-0.1,0-0.2,0c-2.7,1.3-5.3,2.7-8,4
	c-0.2,0.1-0.2,0.2-0.2,0.4c-0.1,0.7-0.5,1.2-1.1,1.3c-0.2,0-0.2,0.1-0.3,0.3c-0.1,0.6-0.5,1-1.1,1.1c-0.2,0-0.2,0.1-0.2,0.2
	c-0.1,0.2-0.2,0.5-0.3,0.7c-0.2,0.3-0.6,0.5-1,0.5c-0.2,1-0.7,1.4-1.6,1.4c-0.4,0-0.8-0.3-1-0.5c-0.1-0.1-0.2-0.1-0.3-0.1
	c-0.9,0.4-1.9,0-2.1-1c0-0.2-0.1-0.2-0.2-0.2c-0.6-0.1-0.9-0.5-1.1-1c0-0.1-0.1-0.2-0.1-0.3c-0.8-0.1-1.2-0.5-1.4-1.3
	c0-0.1-0.1-0.1-0.2-0.1c-0.6-0.1-1.1-0.6-1.2-1.2c0-0.1,0-0.2-0.1-0.2c-0.4-0.3-0.9-0.5-1.3-0.8c-0.1,0.1-0.2,0.3-0.3,0.3
	c-0.3,0-0.7,0-1-0.1c-1.4-0.4-2.7-0.9-4.1-1.3c-0.2-0.1-0.3-0.1-0.3-0.4c0-3,0-6,0-9.1c0-0.1,0-0.2,0-0.3c0.8,0,1.6-0.1,2.3,0.4
	c0.2,0.2,0.4,0.2,0.6,0.4c0.6,0.5,1.2,0.5,1.9,0.2c0.1,0,0.2-0.1,0.2-0.1c-0.1-0.1-0.1-0.2-0.2-0.3c-0.6-0.5-1-1.1-1.1-1.9
	c-0.1-0.5-0.1-1.1-0.1-1.6c0-1.6,1.1-2.9,2.6-3.2c0.2-0.1,0.5-0.1,0.8-0.1c-0.1-0.3-0.2-0.6-0.3-0.8s-0.1-0.4,0.1-0.6
	C13,8.6,13.5,8,14,7.5c0.2-0.2,0.4-0.4,0.5-0.6c0.5,0.3,0.9,0.6,1.3,0.8C16,8,16.2,8,16.3,8c0.5-0.2,1-0.4,1.4-0.6
	c0.1,0,0.2-0.1,0.2-0.2C18,6.6,18.1,6.1,18.2,5.6z M33.5,18.7c-0.1,0.1-0.2,0.1-0.3,0.2c-2.6,1.4-5.3,2.8-7.9,4.2
	c-0.3,0.2-0.6,0.3-1,0.2c-0.2,0-0.4-0.1-0.6-0.1c-0.8-0.2-1.6-0.5-2.4-0.7c-0.5-0.2-1.1-0.2-1.6,0.1c-0.9,0.4-1.7,0.9-2.6,1.3
	c-0.4,0.2-0.5,0.6-0.3,1c0.2,0.3,0.6,0.4,0.9,0.2c0.5-0.3,1-0.6,1.5-0.9c0.9-0.5,1.7-0.5,2.5,0.2c1.2,1.1,2.5,2.2,3.7,3.3
	c0.2,0.1,0.3,0.2,0.5,0.1c2.4-1.2,4.9-2.4,7.3-3.6c0.2-0.1,0.3-0.2,0.2-0.4c0-1,0-2,0-3C33.5,20,33.5,19.4,33.5,18.7z M20.3,28.5
	c0.4,0.4,0.8,0.7,1.2,1c0.4,0.4,0.9,0.7,1.3,1.1c0.3,0.2,0.6,0.2,0.8,0c0.2-0.2,0.1-0.5-0.1-0.7s-0.4-0.4-0.6-0.5
	c-0.6-0.5-1.1-1-1.7-1.5c0.2-0.2,0.4-0.5,0.6-0.7c0.1,0.1,0.2,0.2,0.3,0.3c0.7,0.6,1.4,1.2,2.1,1.8c0.3,0.2,0.6,0.2,0.8,0
	c0.2-0.2,0.1-0.5-0.1-0.8c-1.2-1.1-2.5-2.2-3.7-3.3c-0.5-0.4-0.8-0.5-1.4-0.1c-0.5,0.3-1,0.6-1.6,0.9c-0.5,0.3-1,0.3-1.5,0.1
	c-0.6-0.3-0.9-0.8-0.9-1.4s0.2-1.1,0.8-1.4c0.7-0.4,1.4-0.7,2.1-1c0.1,0,0.1-0.1,0.2-0.1c-0.9-0.3-1.7-0.5-2.5-0.4
	c-1.2,0.2-2.4,0.5-3.5,0.8c-0.1,0-0.2,0.1-0.2,0.2c-0.1,0.4-0.2,0.8-0.3,1.1c-0.3,1-0.6,2-0.9,3c0.5,0.3,0.9,0.6,1.5,0.9
	c0.4-0.4,0.7-0.8,1-1.1c0.5-0.4,1.2-0.4,1.7,0c0.4,0.3,0.5,0.7,0.6,1.1c0.8,0.1,1.3,0.6,1.4,1.4c0.8,0.1,1.2,0.5,1.4,1.3
	c0,0.1,0.1,0.1,0.2,0.1c0.4,0.1,0.6,0.3,0.9,0.5c0.4,0.4,0.9,0.8,1.3,1.2c0.3,0.2,0.6,0.1,0.8-0.1c0.1-0.2,0.1-0.5-0.2-0.7
	c-0.7-0.6-1.4-1.2-2.1-1.8c-0.1-0.1-0.1-0.1-0.2-0.2C19.9,28.9,20.1,28.7,20.3,28.5z M15.4,20.6c0.1,0,0.1,0,0.2,0
	c1-0.2,1.9-0.2,2.9,0.1c0.9,0.2,1.7,0.5,2.6,0.7c1,0.3,2,0.5,3,0.8c0.1,0,0.2,0,0.3,0c0.2,0,0.3-0.1,0.3-0.3c0-0.5,0-1,0-1.5
	c0-0.8-0.4-1.2-1.2-1.4c-0.8-0.2-1.5-0.4-2.3-0.6c-0.2,0-0.3-0.1-0.2-0.3c0-0.3,0-0.6,0-0.9c0-0.2,0-0.3,0.2-0.4
	c0.5-0.3,0.9-0.8,1.1-1.4c0.2-0.8,0.2-1.6-0.1-2.3c-0.3-0.9-1.2-1.6-2.2-1.5c-1.1,0-1.9,0.6-2.2,1.7c-0.1,0.5-0.1,1.1-0.1,1.6
	c0,0.7,0.2,1.3,0.8,1.7c0.6,0.4,0.6,0.8,0.6,1.4c0,0.1,0,0.1,0,0.2c0,0.3-0.1,0.4-0.3,0.4c-0.8,0.2-1.5,0.4-2.3,0.6
	C15.8,19.3,15.3,19.9,15.4,20.6z M30.7,19.1c-0.1,0-0.2,0-0.2-0.1c-0.6-0.2-1.2-0.3-1.9-0.5c-0.2,0-0.2-0.1-0.2-0.3c0-0.3,0-0.7,0-1
	c0-0.2,0-0.3,0.2-0.4c0.6-0.4,1-0.9,1.1-1.6c0.1-0.5,0-1,0-1.4c-0.1-1.1-1-2-2-2.1c-1.2-0.1-2.2,0.5-2.5,1.7
	c-0.1,0.4-0.1,0.9-0.1,1.4c0,1,0.4,1.7,1.2,2.2c0.1,0,0.2,0.2,0.2,0.3c0,0.3,0,0.6,0,0.9s-0.1,0.4-0.3,0.4c-0.4,0.1-0.8,0.2-1.3,0.3
	c0.8,0.8,0.6,1.8,0.7,2.9C27.3,20.9,28.9,20,30.7,19.1z M15.1,18.9c-0.5-0.1-0.9-0.2-1.3-0.3c-0.2,0-0.2-0.1-0.2-0.3
	c0-0.3,0-0.7,0-1c0-0.2,0-0.3,0.2-0.3c0.4-0.2,0.8-0.6,1-1c0.4-0.9,0.3-1.8,0.1-2.7c-0.3-0.9-1.2-1.6-2.2-1.6
	c-1.1,0-1.9,0.6-2.2,1.6c-0.1,0.4-0.1,0.9-0.1,1.4c-0.1,1,0.4,1.8,1.2,2.3c0.1,0,0.1,0.2,0.1,0.3c0,0.4,0,0.7,0,1.1
	c0,0.2-0.1,0.2-0.2,0.3c-0.3,0.1-0.5,0.1-0.8,0.2c0.8,0.5,1.5,0.9,2.2,1.3c0.2,0.1,0.3,0.2,0.2,0.4c0,0.2,0,0.5,0,0.7
	c0.4-0.1,0.8-0.2,1.2-0.3c0.1,0,0.1-0.1,0.2-0.2c0.1-0.4,0.1-0.7,0.2-1.1C14.7,19.3,14.9,19.1,15.1,18.9z M16.8,14.4
	c0-0.2,0-0.5,0-0.7c0-0.1,0-0.1,0-0.2c0.2-1.4,1.2-2.4,2.5-2.7s2.6,0.2,3.4,1.4c0.7,1.1,0.7,2.2,0.5,3.4C23,16.4,22.6,17,22,17.5
	c-0.1,0.1-0.1,0.2-0.1,0.2l0.1,0.1c0.5,0.1,1.1,0.3,1.6,0.4c0.1,0,0.2,0,0.3,0c0.5-0.1,1-0.2,1.4-0.4c0.1,0,0.2-0.1,0.2-0.1
	c0-0.1-0.1-0.2-0.1-0.2c-0.2-0.3-0.5-0.5-0.7-0.8c-0.7-1.2-0.7-2.5-0.3-3.9c0-0.1,0.1-0.3,0-0.4c-0.9-1.5-2.1-2.4-3.8-2.5
	c-2.1-0.2-3.8,0.6-5,2.4c-0.1,0.2-0.1,0.3-0.1,0.5c0.4,1.1,0.4,2.3-0.1,3.4c-0.2,0.5-0.6,0.9-1,1.2c-0.2,0.1-0.2,0.3,0,0.3
	c0.6,0.1,1.1,0.3,1.7,0.4c0.1,0,0.2,0,0.3,0c0.5-0.1,0.9-0.2,1.4-0.4c0.1,0,0.2-0.1,0.2-0.1c-0.1-0.1-0.1-0.2-0.2-0.3
	c-0.2-0.2-0.4-0.4-0.5-0.5C16.9,16.2,16.7,15.3,16.8,14.4z M25.2,8.3c-0.4,0.2-0.8,0.5-1.1,0.7c-0.1,0.1-0.2,0.1-0.3,0
	c-0.7-0.4-1.4-0.7-2.2-0.9c-0.1,0-0.2-0.1-0.2-0.2c-0.1-0.4-0.2-0.7-0.2-1.1c0-0.1-0.1-0.2-0.2-0.2c-0.5,0-1.1,0-1.6,0
	C19,6.5,19,6.6,19,6.8c-0.1,0.4-0.2,0.7-0.2,1.1c0,0.2-0.1,0.3-0.3,0.3C17.7,8.3,17,8.6,16.3,9c-0.2,0.1-0.3,0.1-0.4,0
	c-0.4-0.2-0.7-0.5-1.1-0.7c-0.3,0.3-0.6,0.6-0.9,0.9c-0.2,0.2-0.5,0.4-0.5,0.6c0,0.2,0.2,0.5,0.3,0.8c0,0.1,0.1,0.2,0.1,0.3
	s0.1,0.1,0.1,0.1c0.3,0.2,0.6,0.4,1,0.6c1.2-1.8,2.9-2.8,5.1-2.8s3.9,1,5.1,2.8c0.3-0.2,0.7-0.4,1-0.6l0.1-0.1
	c0.1-0.3,0.3-0.7,0.4-1c0-0.1,0-0.2,0-0.2C26.1,9.2,25.7,8.7,25.2,8.3z M6.6,17.7c0,0.2,0,0.3,0,0.4c0,1.5,0,3.1,0,4.6
	c0,0.9,0,1.9,0,2.8c0,0.1,0.1,0.2,0.1,0.3c0.6,0.2,1.2,0.4,1.8,0.6c0.6-2.3,1.1-4.5,1.7-6.7C9.1,19,8.1,18.4,7,17.8
	C6.9,17.7,6.7,17.7,6.6,17.7z M11.1,20.1c-0.6,2.2-1.1,4.4-1.6,6.5c0.3,0.1,0.6,0.2,0.9,0.3c0.3-1.1,0.6-2.1,0.9-3.2
	c0.3-0.9,0.5-1.8,0.8-2.8c0-0.1,0-0.3-0.1-0.4C11.7,20.5,11.4,20.3,11.1,20.1z M15.4,27.5c-0.1-0.1-0.2-0.3-0.4-0.4s-0.4,0-0.6,0.1
	c-0.3,0.2-0.5,0.5-0.8,0.8c-0.2,0.2-0.3,0.6-0.1,0.8c0.2,0.2,0.5,0.2,0.8,0c0.2-0.2,0.5-0.5,0.7-0.7C15.3,27.8,15.3,27.6,15.4,27.5z
	 M15.4,30.2c0.1,0,0.3-0.1,0.3-0.1c0.3-0.3,0.7-0.6,1-1c0.2-0.2,0.1-0.5-0.1-0.6s-0.4-0.2-0.6-0.1c-0.3,0.3-0.7,0.6-1,1
	c-0.1,0.1-0.1,0.4,0,0.5C15.1,30.1,15.3,30.2,15.4,30.2z M18.2,30.2c-0.1-0.1-0.2-0.3-0.4-0.4c-0.2-0.1-0.4-0.1-0.6,0.1
	c-0.3,0.2-0.5,0.5-0.8,0.8c-0.2,0.3-0.3,0.6,0,0.8c0.2,0.2,0.5,0.2,0.8,0c0.2-0.2,0.5-0.5,0.7-0.7C18.1,30.6,18.1,30.4,18.2,30.2z
	 M19,31.2c-0.1,0-0.2,0-0.2,0.1c-0.3,0.3-0.6,0.6-1,1c-0.2,0.2-0.1,0.5,0,0.6s0.5,0.2,0.6,0.1c0.3-0.3,0.7-0.6,1-1
	C19.7,31.6,19.4,31.2,19,31.2z M20.4,32.3c-0.2,0.3-0.4,0.5-0.6,0.8c0.2,0.3,0.5,0.5,0.9,0.4c0.1,0,0.3-0.2,0.3-0.4
	C21,32.6,20.6,32.5,20.4,32.3z"/>
</svg>
