<?xml version="1.0" encoding="utf-8"?>
<!-- Generator: Adobe Illustrator 24.3.1, SVG Export Plug-In . SVG Version: 6.00 Build 0)  -->
<svg version="1.1" id="Layer_1" xmlns="http://www.w3.org/2000/svg" xmlns:xlink="http://www.w3.org/1999/xlink" x="0px" y="0px"
	 viewBox="0 0 40 40" style="enable-background:new 0 0 40 40;" xml:space="preserve">
<style type="text/css">
	.st0{fill:#CA9E58;}
</style>
<g>
	<path class="st0" d="M32.7,9.2h-20c-1.3,0-2.3,1-2.3,2.3v4.3c0,0.4,0.3,0.7,0.7,0.7s0.7-0.3,0.7-0.7v-4.3c0-0.6,0.4-0.9,0.9-0.9h20
		c0.6,0,0.9,0.4,0.9,0.9v14.3c0,0.6-0.4,0.9-0.9,0.9h-15c-0.4,0-0.7,0.3-0.7,0.7s0.3,0.7,0.7,0.7h15c1.3,0,2.3-1,2.3-2.3V11.5
		C34.9,10.2,33.9,9.2,32.7,9.2z"/>
	<path class="st0" d="M16.8,20.1l0,4.4h-1.6c-0.3,0-0.4,0.1-0.4,0.4s0.1,0.4,0.4,0.4h16.7c0.3,0,0.4-0.1,0.4-0.4s-0.1-0.4-0.4-0.4
		h-1.7v-9.7h-4.1v9.7h-0.4V12h-4.1v12.4H21v-4.3C20.9,20.1,16.8,20.1,16.8,20.1z M17.9,23.5h1.7v0.9h-1.7V23.5z M19.6,21.3v0.9h-1.7
		v-0.9H19.6z M27.2,20.5h1.7v3.9h-1.7V20.5z M28.9,15.9v3.4h-1.7v-3.4C27.2,15.9,28.9,15.9,28.9,15.9z M22.6,16.6h1.7v7.7h-1.7V16.6
		z M24.4,13.3v2h-1.7v-2C22.6,13.3,24.4,13.3,24.4,13.3z"/>
	<path class="st0" d="M13.9,26.6c-0.3-0.1-0.7-0.7-0.1-1.7c0.4-1.1,0.7-2,0.7-3.4c0.6-1.3,0.7-2.7,0.1-3.4c0-0.7,1.1-1-2.9-1.4
		c0,0-3.7-0.7-4.3,2.1c0.1,1.4,0.4,4,0.4,4l0.6,1.7c0,0,0.9,0.7,0.3,1.9c-1.3,0.3-4.4,0.9-3.6,4.4c1.9,0.1,11.2,0,11.2,0
		s1.3,0,0.9-1.4C16.8,27.9,16.6,27,13.9,26.6z M8.2,19.5c0,0,0.9-2.9,5-0.9c0.3,1,0,1.7,0,1.7S10.8,19.5,8.2,19.5z M13.4,21.3
		c-0.1,1.3-0.1,3.9-2,4c-0.6,0.1-3.1-1.3-2-4.4C9.3,21,11.4,20.9,13.4,21.3z M9.9,30c0,0-1.4,0.1-3.6,0c-0.7-1.3,1.1-1.7,1.1-1.7
		l0.9-0.4C11.4,28.9,9.9,30,9.9,30z M9.9,26.6h2.4l-1.1,1.3L9.9,26.6z M15.6,30c0,0-1.4,0.1-3.6,0c-0.7-1.3,1.1-1.7,1.1-1.7l0.9-0.4
		C16.9,28.9,15.6,30,15.6,30z"/>
</g>
</svg>
