<?xml version="1.0" encoding="utf-8"?>
<!-- Generator: Adobe Illustrator 24.3.1, SVG Export Plug-In . SVG Version: 6.00 Build 0)  -->
<svg version="1.1" id="Layer_1" xmlns="http://www.w3.org/2000/svg" xmlns:xlink="http://www.w3.org/1999/xlink" x="0px" y="0px"
	 viewBox="0 0 40 40" style="enable-background:new 0 0 40 40;" xml:space="preserve">
<style type="text/css">
	.st0{fill:#CA9E58;}
</style>
<g>
	<path class="st0" d="M30.5,26.8c1.4-0.9,2.3-2.4,2.3-4.3c0-2.8-2.3-5-5-5c-0.7,0-1.3,0.1-2,0.4c-0.6-1.1-1.4-2.1-3.1-2.7
		c1.4-0.9,2.3-2.4,2.3-4.3c0-2.8-2.3-5.1-5-5.1s-5,2.3-5,5.1c0,1.8,1,3.4,2.4,4.3c-1.1,0.4-2.4,1.3-3.3,2.7c-0.6-0.3-1.3-0.4-2-0.4
		c-2.8,0-5.1,2.3-5.1,5c0,1.8,1,3.4,2.4,4.3c-2,0.7-4.4,2.5-3.6,7.2c10.5,0.1,12.8,0,12.8,0s1-5.7-3.7-7.4c1.4-0.9,2.3-2.4,2.3-4.3
		l0,0c2.4,0,4.1,0,5.5,0l0,0c0,1.8,1,3.4,2.4,4.3c-2.1,0.7-4.4,2.6-3.5,7.2c10.5,0.1,12.8,0,12.8,0S35.2,28.5,30.5,26.8z M16.2,11
		c0-2.1,1.7-3.8,3.8-3.8s3.8,1.7,3.8,3.8s-1.7,3.8-3.8,3.8C17.9,14.7,16.2,13,16.2,11z M17.4,32.9C14.6,33,7,32.9,7,32.9
		s-0.1-5.2,5.1-5.2l0,0l0,0C13.9,27.8,16.9,27.6,17.4,32.9z M12.2,26.3L12.2,26.3L12.2,26.3c-2.1,0-3.8-1.7-3.8-3.8s1.7-3.8,3.8-3.8
		s3.8,1.7,3.8,3.8C15.9,24.6,14.2,26.3,12.2,26.3z M17,21.4c-0.3-1-0.9-2-1.6-2.6c0.6-1.4,1.8-2.7,4.5-2.7c1.4,0.1,3.5,0.1,4.7,2.7
		c-0.9,0.7-1.4,1.6-1.7,2.7C21,21.4,18.6,21.4,17,21.4z M24,22.7c0-0.3,0-0.6,0-0.7l0.1-0.6l0,0c0.6-1.4,2-2.6,3.5-2.6
		c2.1,0,3.8,1.7,3.8,3.8s-1.7,3.8-3.8,3.8l0,0l0,0C25.7,26.3,24,24.6,24,22.7z M22.7,32.9c0,0-0.1-5.2,5-5.2l0,0l0,0
		c1.7,0.1,4.8,0,5.2,5.2C30.2,33.2,22.7,32.9,22.7,32.9z"/>
	<ellipse class="st0" cx="30.3" cy="22.2" rx="0.7" ry="0.9"/>
	<path class="st0" d="M23.2,10.5c0-0.4-0.3-0.9-0.7-0.9s-0.7,0.4-0.7,0.9s0.3,0.9,0.7,0.9C22.8,11.2,23.2,10.9,23.2,10.5z"/>
	<ellipse class="st0" cx="14.7" cy="22.1" rx="0.7" ry="0.9"/>
	<path class="st0" d="M21.3,11.7c-0.3,1-0.7,0.7-1.3,1c-1,0.6-0.1,1.1,0.1,1c1.1,0.1,1.7-0.1,2.1-0.7C23,11.5,21.3,11.7,21.3,11.7z"
		/>
	<path class="st0" d="M28.1,25.4c1.1,0.1,1.7-0.1,2.1-0.7c0.9-1.6-1-1.3-1-1.3c-0.3,1-0.7,0.7-1.3,1C26.8,24.9,27.8,25.5,28.1,25.4z
		"/>
	<path class="st0" d="M13.6,23.4c-0.4,1-0.7,0.7-1.4,0.7c-1.1,0.4-0.3,1.1,0,1c1.1,0.3,1.7,0,2.1-0.4C15.4,23.4,13.6,23.4,13.6,23.4
		z"/>
</g>
</svg>
