<?xml version="1.0" encoding="utf-8"?>
<!-- Generator: Adobe Illustrator 24.3.1, SVG Export Plug-In . SVG Version: 6.00 Build 0)  -->
<svg version="1.1" id="Layer_1" xmlns="http://www.w3.org/2000/svg" xmlns:xlink="http://www.w3.org/1999/xlink" x="0px" y="0px"
	 viewBox="0 0 40 40" style="enable-background:new 0 0 40 40;" xml:space="preserve">
<style type="text/css">
	.st0{fill:#CA9E58;}
</style>
<g>
	<path class="st0" d="M14.8,8.9v9l0,0l0,0h10.9v-1.5l0,0V8.9l0,0l0,0l-5.9-3.5l0,0L14.8,8.9L14.8,8.9L14.8,8.9L14.8,8.9L14.8,8.9z
		 M21.4,12.6v3.8h-2.1v-3.8C19.3,12.6,21.4,12.6,21.4,12.6z M22.8,16.4v-3.8l0,0v-1.5h-5v1.5l0,0v3.8h-1.6V9.7l3.7-2.5l4.4,2.6v6.8
		h-1.5V16.4z"/>
	<path class="st0" d="M30.6,9.7c-2.1,0.7-1.9,2.2-1.9,2.2s-0.3,3.5-0.6,6.3c-2.1-0.6-2.9,1.5-2.9,1.5l-5,7.2l-5.1-7.1
		c0,0-0.9-2.1-2.9-1.5C12,15.6,11.5,12,11.5,12s0-1.5-1.9-2.2c0,0-2.8-0.1-2.2,2.9c0.1,2.5,0.1,2.5,0.1,2.5l0.6,5
		c0,0,0.9,2.8,2.4,4.4c1.3,1.8,3.7,5.6,3.7,5.6v2.4c0,0-0.1,2.1,1.9,1.9c1.6,0.1,3.2,0,3.8,0s2.2,0.1,3.8,0c2.1,0.1,1.9-1.9,1.9-1.9
		v-2.4c0,0,2.4-3.8,3.7-5.6c1.5-1.8,2.4-4.4,2.4-4.4l0.6-5c0,0,0,0,0.1-2.5C33.6,9.5,30.6,9.7,30.6,9.7z M19.6,33.3c0,0-0.9,0-1.9,0
		c-2.1,0.1-1.9-0.7-1.9-0.7v-2.8c0,0-3.8-5.3-4.8-7.1c-1-1.3-1.3-3.2-1.3-3.2s-0.9-5.3-1-7.2c0-2.1,1.6-0.7,1.6-0.7l0.3,3.1
		c0,0,0,0,0.1,2.2l0.1,4.6c0,0,0.6,0.7,1.6,2.4c1.3,1.3,1.3-0.1,1.3-0.1s-0.9-1.5-1.6-2.6c-0.6-2.1,1.3-1.2,1.3-1.2l6.2,8.8
		L19.6,33.3L19.6,33.3z M30.8,19.4c0,0-0.3,1.9-1.3,3.2c-1,1.8-4.8,7.1-4.8,7.1v2.8c0,0,0.1,0.9-1.9,0.7c-1,0-1.9,0-1.9,0v-4.8
		l6.2-8.8c0,0,1.8-0.9,1.3,1.2c-0.7,1.2-1.6,2.6-1.6,2.6s0,1.5,1.3,0.1c1-1.5,1.6-2.4,1.6-2.4l0.1-4.6c0.1-2.2,0.1-2.2,0.1-2.2
		l0.3-3.1c0,0,1.6-1.3,1.6,0.7C31.7,14.2,30.8,19.4,30.8,19.4z"/>
	<path class="st0" d="M21.8,28.5c-0.4,0-0.7,0.3-0.7,0.7c0,0.4,0.3,0.7,0.7,0.7c0.4,0,0.7-0.3,0.7-0.7S22.3,28.5,21.8,28.5z"/>
	<path class="st0" d="M21.8,30.4L21.8,30.4c-0.4,0-0.6,0.3-0.6,0.6v1.5c0,0.3,0.3,0.6,0.6,0.6l0,0c0.3,0,0.6-0.3,0.6-0.6V31
		C22.4,30.7,22.1,30.4,21.8,30.4z"/>
</g>
</svg>
