<?xml version="1.0" encoding="utf-8"?>
<!-- Generator: Adobe Illustrator 24.3.1, SVG Export Plug-In . SVG Version: 6.00 Build 0)  -->
<svg version="1.1" id="Layer_1" xmlns="http://www.w3.org/2000/svg" xmlns:xlink="http://www.w3.org/1999/xlink" x="0px" y="0px"
	 viewBox="0 0 40 40" style="enable-background:new 0 0 40 40;" xml:space="preserve">
<style type="text/css">
	.st0{fill:#CA9E58;}
</style>
<g>
	<g>
		<path class="st0" d="M21.9,8.5c0.9,0.6,1.5,1.2,1.7,2.3c0.2,0.6-0.2,0.9-0.8,0.9c-1.8,0-3.8,0-5.6,0c-0.6,0-0.9-0.3-0.8-0.9
			c0.2-1.1,0.8-1.8,1.7-2.4c-0.5-0.6-0.8-1.4-0.5-2.1c0.2-0.5,0.5-0.9,0.9-1.4c0.8-0.8,2.1-0.6,2.9,0C22.5,5.9,22.7,6.9,21.9,8.5z
			 M20.1,5.6c-0.8,0-1.4,0.6-1.4,1.2S19.3,8,19.9,8s1.2-0.6,1.2-1.2C21.3,6.2,20.7,5.6,20.1,5.6z M22.2,10.6c-0.2-0.9-0.8-1.2-2-1.2
			c-1.7,0-2.3,0.3-2.6,1.2C19.2,10.6,20.7,10.6,22.2,10.6z"/>
	</g>
	<g>
		<path class="st0" d="M31.2,16.1c0,1.1-0.3,2-1.2,2.6c-0.6,0.5-0.9,0.3-1.2-0.2c-0.9-1.7-1.8-3.2-2.9-4.9c-0.3-0.6-0.2-0.9,0.5-1.1
			c1.1-0.5,2-0.3,2.9,0.3c0.3-0.8,0.9-1.4,1.7-1.4c0.5-0.2,1.1,0,1.5,0.2c1.1,0.3,1.7,1.5,1.4,2.6C33.6,15.1,32.7,15.9,31.2,16.1z
			 M32.5,13c-0.3-0.6-1.1-0.9-1.7-0.5c-0.6,0.3-0.8,1.2-0.5,1.7c0.3,0.6,1.1,0.8,1.7,0.5C32.7,14.4,32.8,13.6,32.5,13z M29.5,17.4
			c0.6-0.6,0.6-1.4,0-2.4c-0.8-1.5-1.4-1.8-2.3-1.5C28,14.8,28.7,16.1,29.5,17.4z"/>
	</g>
	<g>
		<path class="st0" d="M29.3,27.6c-0.9,0.5-1.8,0.8-2.9,0.3c-0.6-0.3-0.8-0.6-0.5-1.1c0.9-1.7,1.8-3.2,2.9-4.9
			c0.3-0.6,0.6-0.6,1.2-0.2c0.9,0.6,1.2,1.5,1.2,2.7c0.8,0,1.5,0.2,2.1,0.8c0.3,0.5,0.6,0.9,0.8,1.4c0.2,1.1-0.5,2.1-1.5,2.6
			C31.3,29.4,30.2,29,29.3,27.6z M32.7,27.3c0.3-0.6,0.2-1.4-0.5-1.7c-0.6-0.3-1.4-0.2-1.7,0.5c-0.3,0.6-0.2,1.4,0.5,1.7
			C31.5,28.2,32.4,27.9,32.7,27.3z M27.4,26.8c0.9,0.3,1.5-0.2,2.1-1.1c0.9-1.5,0.9-2.1,0.2-2.9C28.9,24.2,28.1,25.5,27.4,26.8z"/>
	</g>
	<g>
		<path class="st0" d="M18.1,31.5c-0.9-0.6-1.5-1.2-1.7-2.3c-0.2-0.8,0.2-0.9,0.8-0.9c1.8,0,3.8,0,5.6,0c0.6,0,0.9,0.3,0.8,0.9
			c-0.2,1.1-0.8,1.8-1.7,2.4c0.5,0.6,0.8,1.4,0.5,2.1c-0.2,0.5-0.5,0.9-0.9,1.4c-0.8,0.8-2.1,0.6-2.9,0
			C17.5,34.1,17.3,33.1,18.1,31.5z M19.9,34.4c0.8,0,1.4-0.6,1.4-1.2c0-0.6-0.6-1.2-1.2-1.2s-1.2,0.6-1.2,1.2
			C18.7,33.8,19.3,34.4,19.9,34.4z M17.6,29.4c0.2,0.9,0.8,1.2,2,1.2c1.7,0,2.3-0.3,2.6-1.2C20.7,29.4,19.2,29.4,17.6,29.4z"/>
	</g>
	<g>
		<path class="st0" d="M8.7,24.4c0-1.1,0.3-2,1.2-2.6c0.6-0.5,0.9-0.3,1.2,0.2c0.9,1.7,1.8,3.2,2.9,4.9c0.3,0.6,0.2,0.9-0.5,1.1
			c-1.1,0.5-2,0.3-2.9-0.3C10.4,28.3,9.8,29,9,29c-0.5,0.2-1.1,0-1.5-0.2c-1.1-0.3-1.7-1.5-1.4-2.6C6.3,25.3,7.2,24.6,8.7,24.4z
			 M7.3,27.4C7.6,28,8.4,28.2,9,27.9c0.6-0.3,0.8-1.2,0.5-1.7c-0.3-0.6-1.1-0.8-1.7-0.5C7.2,26.1,6.9,26.8,7.3,27.4z M10.4,23
			c-0.6,0.6-0.6,1.4-0.2,2.4c0.9,1.5,1.4,1.8,2.4,1.5C11.9,25.8,11.1,24.4,10.4,23z"/>
	</g>
	<g>
		<path class="st0" d="M10.5,12.6c0.9-0.5,1.8-0.6,2.9-0.3c0.6,0.3,0.8,0.6,0.5,1.1c-1,1.6-1.9,3.1-2.9,4.8
			c-0.3,0.6-0.6,0.6-1.2,0.2c-0.9-0.6-1.2-1.5-1.2-2.7c-0.8,0-1.5-0.2-2.1-0.8c-0.3-0.5-0.6-0.9-0.6-1.4c-0.2-1.1,0.5-2.1,1.5-2.6
			C8.5,10.7,9.6,11.2,10.5,12.6z M7.2,12.9c-0.3,0.6-0.2,1.4,0.5,1.7c0.6,0.3,1.4,0.2,1.7-0.5c0.3-0.6,0.2-1.4-0.5-1.7
			C8.2,12,7.5,12.3,7.2,12.9z M12.5,13.3c-0.9-0.3-1.5,0.2-2.1,1.1c-0.9,1.5-0.9,2.1-0.2,2.9C11,15.9,11.7,14.7,12.5,13.3z"/>
	</g>
	<g>
		<g>
			<path class="st0" d="M17.5,17.4l-0.9-0.3c0,0,0.8-1.7,2.7-1.7v1.1C17.8,16.5,17.5,17.4,17.5,17.4z"/>
		</g>
		<g>
			<path class="st0" d="M15.8,21.7c0,0-1.2-1.4-0.5-3.2l0.9,0.5c-0.6,1.2,0.2,2,0.2,2L15.8,21.7z"/>
		</g>
		<g>
			<path class="st0" d="M19,24.4c-0.5,0-1.7-0.2-2.6-1.5l0.9-0.5c0.6,1.2,1.7,1.1,1.8,1.1l0.2,1.1C19.3,24.2,19.2,24.4,19,24.4z"/>
		</g>
		<g>
			<path class="st0" d="M21.3,24.2c-0.2,0-0.3,0-0.5,0l0.2-1.1c1.4,0.2,1.8-0.8,1.8-0.8l0.9,0.5C23.7,22.9,23,24.2,21.3,24.2z"/>
		</g>
		<g>
			<path class="st0" d="M24.5,21.4l-0.9-0.5c0.6-1.2-0.2-2-0.2-2l0.8-0.8C24.2,18.2,25.4,19.4,24.5,21.4z"/>
		</g>
		<g>
			<path class="st0" d="M22.8,17.4c-0.8-1-1.8-0.9-1.8-0.9l-0.2-1.1c0,0,1.7-0.3,2.9,1.4L22.8,17.4z"/>
		</g>
	</g>
	<g>
		<path class="st0" d="M27.7,19.2l-3.3-5.8c-0.2-0.5-0.6-0.6-1.1-0.6h-6.5c-0.5,0-0.9,0.3-1.1,0.6l-3.3,5.8c-0.2,0.5-0.2,0.9,0,1.4
			l3.3,5.8c0.2,0.5,0.6,0.6,1.1,0.6h6.5c0.5,0,0.9-0.3,1.1-0.6l3.3-5.8C27.8,20.2,27.8,19.7,27.7,19.2z M26,20.5L23.4,25
			c-0.2,0.3-0.5,0.5-0.9,0.5h-5.2c-0.3,0-0.8-0.2-0.9-0.5l-2.6-4.6c-0.2-0.3-0.2-0.8,0-1.1l2.6-4.6c0.2-0.3,0.5-0.5,0.9-0.5h5.2
			c0.3,0,0.8,0.2,0.9,0.5l2.6,4.6C26.3,19.7,26.3,20.2,26,20.5z"/>
	</g>
	<g>
		<path class="st0" d="M19.9,17.6c-1.2,0-2.3,1.1-2.3,2.3c0,1.2,1.1,2.3,2.3,2.3c1.2,0,2.3-1.1,2.3-2.3
			C22.2,18.6,21.3,17.6,19.9,17.6z M19.9,20.8c-0.5,0-0.9-0.5-0.9-0.9c0-0.5,0.5-0.9,0.9-0.9c0.5,0,0.9,0.5,0.9,0.9
			C20.8,20.5,20.5,20.8,19.9,20.8z"/>
	</g>
</g>
</svg>
