<?xml version="1.0" encoding="utf-8"?>
<!-- Generator: Adobe Illustrator 16.0.0, SVG Export Plug-In . SVG Version: 6.00 Build 0)  -->
<!DOCTYPE svg PUBLIC "-//W3C//DTD SVG 1.1//EN" "http://www.w3.org/Graphics/SVG/1.1/DTD/svg11.dtd">
<svg version="1.1" id="Layer_3" xmlns="http://www.w3.org/2000/svg" xmlns:xlink="http://www.w3.org/1999/xlink" x="0px" y="0px"
	 width="360px" height="360px" viewBox="0 0 360 360" enable-background="new 0 0 360 360" xml:space="preserve">
<g>
	<g>
		<linearGradient id="SVGID_1_" gradientUnits="userSpaceOnUse" x1="172.9053" y1="403.6797" x2="182.9053" y2="60.3467">
			<stop  offset="0" style="stop-color:#8E7C57"/>
			<stop  offset="1" style="stop-color:#FFD98D"/>
		</linearGradient>
		<path fill="url(#SVGID_1_)" d="M92.074,335.396c-12.573,0-20.568-2.695-20.923-2.777l-11.238-3.793l9.655-6.926
			c0.171-0.141,17.791-13.152,27.64-43.877C38.89,252.854,1.501,207.109,1.501,160.271c0-74.785,80.073-135.656,178.487-135.656
			c98.413,0,178.487,60.871,178.487,135.656c0,78.613-69.355,135.633-164.922,135.633c-6.18,0-12.366-0.238-18.47-0.709
			C143.987,328.33,112.878,335.396,92.074,335.396z M86.035,322.941c1.832,0.189,3.864,0.26,6.051,0.26
			c18.795,0,47.245-6.701,76.032-38.441l2.044-2.246l3.037,0.271c6.694,0.592,13.56,0.898,20.391,0.898
			c88.487,0,152.702-51.9,152.702-123.477c0-5.531-0.473-10.973-1.431-16.332C334.05,83.535,264.233,36.805,180,36.805
			c-91.679,0-166.292,55.4-166.292,123.455c0,43.186,36.58,85.775,93.214,108.535l5.046,2.008l-1.441,5.248
			C104.151,299.248,93.676,314.373,86.035,322.941z"/>
		<linearGradient id="SVGID_2_" gradientUnits="userSpaceOnUse" x1="172.916" y1="403.6807" x2="182.916" y2="60.3477">
			<stop  offset="0" style="stop-color:#8E7C57"/>
			<stop  offset="1" style="stop-color:#FFD98D"/>
		</linearGradient>
		<path fill="url(#SVGID_2_)" d="M92.074,336.908c-10.719,0-18.37-1.949-21.165-2.775l-14.263-4.811l12.047-8.674
			c0.691-0.52,17.076-13.045,26.66-41.809C37.378,253.385,0,206.967,0,160.26C0,84.629,80.747,23.092,180,23.092
			S360,84.629,360,160.26c0,79.477-69.993,137.156-166.434,137.156c-5.979,0-11.983-0.236-17.874-0.674
			C144.3,329.926,112.926,336.908,92.074,336.908z M63.192,328.33l8.443,2.859c2.807,0.828,10.116,2.693,20.438,2.693
			c20.367,0,51.092-6.889,81.91-39.729l0.497-0.52l0.727,0.047c6.038,0.473,12.214,0.709,18.358,0.709
			c94.68,0,163.408-56.416,163.408-134.119c0-73.963-79.389-134.143-176.975-134.143C82.419,26.129,3.014,86.295,3.014,160.26
			c0,45.834,37.212,91.506,94.785,116.357l1.259,0.545l-0.425,1.311c-9.803,30.572-27.422,44.066-28.167,44.621L63.192,328.33z
			 M92.086,324.713c-2.429,0-4.462-0.07-6.204-0.26l-2.942-0.283l1.973-2.221c7.552-8.461,17.862-23.375,24.166-46.289l1.076-3.936
			l-3.788-1.512c-57.212-22.984-94.171-66.141-94.171-109.93c0-68.93,75.282-124.99,167.805-124.99
			c83.772,0,155.29,46.576,166.351,108.34c0.97,5.395,1.454,10.984,1.454,16.598c0,72.428-64.853,124.99-154.215,124.99
			c-6.807,0-13.726-0.307-20.527-0.898l-2.286-0.225l-1.536,1.689C140.058,317.967,111.17,324.713,92.086,324.713z M89.161,321.641
			c0.904,0.047,1.873,0.047,2.925,0.047c18.481,0,46.482-6.57,74.903-37.932l2.558-2.789l3.788,0.354
			c6.7,0.592,13.519,0.875,20.243,0.875c87.601,0,151.189-51.287,151.189-121.965c0-5.432-0.473-10.836-1.407-16.066
			C332.561,83.814,262.342,38.318,180,38.318c-90.851,0-164.779,54.707-164.779,121.941c0,42.549,36.219,84.605,92.268,107.129
			l6.305,2.504l-1.803,6.561C106.065,297.982,96.659,312.637,89.161,321.641z"/>
	</g>
</g>
<g>
	<g>
		<linearGradient id="SVGID_3_" gradientUnits="userSpaceOnUse" x1="107.3369" y1="401.7705" x2="117.3369" y2="58.4375">
			<stop  offset="0" style="stop-color:#8E7C57"/>
			<stop  offset="1" style="stop-color:#FFD98D"/>
		</linearGradient>
		<path fill="url(#SVGID_3_)" d="M113.794,161.234c10.363,0,18.76,8.402,18.76,18.76s-8.396,18.748-18.76,18.748
			c-10.357,0-18.754-8.391-18.754-18.748S103.437,161.234,113.794,161.234z"/>
	</g>
	<g>
		<linearGradient id="SVGID_4_" gradientUnits="userSpaceOnUse" x1="173.4609" y1="403.6963" x2="183.4609" y2="60.3633">
			<stop  offset="0" style="stop-color:#8E7C57"/>
			<stop  offset="1" style="stop-color:#FFD98D"/>
		</linearGradient>
		<path fill="url(#SVGID_4_)" d="M179.977,161.234c10.353,0,18.753,8.402,18.753,18.76s-8.4,18.748-18.753,18.748
			c-10.358,0-18.754-8.391-18.754-18.748S169.618,161.234,179.977,161.234z"/>
	</g>
	<g>
		<linearGradient id="SVGID_5_" gradientUnits="userSpaceOnUse" x1="239.6348" y1="405.623" x2="249.6348" y2="62.2901">
			<stop  offset="0" style="stop-color:#8E7C57"/>
			<stop  offset="1" style="stop-color:#FFD98D"/>
		</linearGradient>
		<path fill="url(#SVGID_5_)" d="M246.2,161.234c10.363,0,18.766,8.402,18.766,18.76s-8.402,18.748-18.766,18.748
			c-10.353,0-18.754-8.391-18.754-18.748S235.848,161.234,246.2,161.234z"/>
	</g>
</g>
</svg>
