<?xml version="1.0" encoding="utf-8"?>
<!-- Generator: Adobe Illustrator 16.0.0, SVG Export Plug-In . SVG Version: 6.00 Build 0)  -->
<!DOCTYPE svg PUBLIC "-//W3C//DTD SVG 1.1//EN" "http://www.w3.org/Graphics/SVG/1.1/DTD/svg11.dtd">
<svg version="1.1" id="Layer_3" xmlns="http://www.w3.org/2000/svg" xmlns:xlink="http://www.w3.org/1999/xlink" x="0px" y="0px"
	 width="360px" height="360px" viewBox="0 0 360 360" enable-background="new 0 0 360 360" xml:space="preserve">
<path fill="#A23F00" d="M193.699,136.223"/>
<path fill="#A23F00" d="M233.333,43.421"/>
<g>
	<g>
		<linearGradient id="SVGID_1_" gradientUnits="userSpaceOnUse" x1="134.8862" y1="405.5" x2="134.8862" y2="60.5">
			<stop  offset="0" style="stop-color:#8E7C57"/>
			<stop  offset="1" style="stop-color:#FFD98D"/>
		</linearGradient>
		<path fill="url(#SVGID_1_)" d="M204.061,345.001l-188.91,0.015c1.454-34.725,13.424-53.789,37.35-59.773l61.815-15.451
			c2.685-0.675,4.784-2.773,5.46-5.46l7.35-29.414c0.66-2.64-0.164-5.431-2.16-7.291c-15.149-14.204-25.185-35.039-26.834-55.709
			c-0.301-3.901-3.556-6.901-7.471-6.901h-2.43c-3.78,0-6.975-2.82-7.44-6.568l-3.75-30.001c-0.27-2.175,0.375-4.275,1.83-5.91
			c1.44-1.635,3.42-2.535,5.61-2.535h1.561c2.16,0,4.214-0.93,5.64-2.52c1.425-1.604,2.085-3.765,1.814-5.895
			c-0.96-7.695-3.48-29.235-3.48-36.57c0-23.4,4.605-44.445,60.075-45.001c1.53-0.015,3.03-0.494,4.291-1.394
			c16.754-11.985,34.739-13.605,50.099-13.605c21.062,0,35.955,6.435,44.266,19.11c9.961,15.224,5.656,23.1,0.961,28.095l-7.5,7.5
			c-1.32,1.32-2.1,3.075-2.189,4.935l-1.83,37.53c-0.104,2.04,0.629,4.02,2.024,5.505c1.396,1.47,3.33,2.34,5.37,2.354
			c2.175,0.03,4.154,0.945,5.595,2.58c1.41,1.62,2.04,3.69,1.771,5.82l-3.75,30.001c-0.465,3.75-3.659,6.568-8.176,6.568
			c-3.914,0-7.153,2.985-7.47,6.886c-0.18,2.13-0.524,4.274-0.854,6.405c-0.646,4.094,2.16,7.935,6.24,8.581
			c4.021,0.658,7.936-2.146,8.58-6.24c0.074-0.497,0.149-0.977,0.226-1.456c8.563-2.37,15.194-9.72,16.334-18.9l3.751-30
			c0.795-6.329-1.155-12.72-5.355-17.535c-2.459-2.82-5.563-4.949-9-6.255l1.381-28.244l5.609-5.61
			c8.46-9,15.465-24.405,0.811-46.755C250.035,8.716,230.925,0,204.465,0c-10.425,0-34.47,0-56.865,15.03
			C83.686,16.365,75,46.05,75,75.001c0,6.734,1.635,21.899,2.715,31.035c-3.855,1.214-7.351,3.464-10.081,6.555
			c-4.259,4.83-6.255,11.279-5.459,17.685l3.75,30c1.215,9.795,8.655,17.476,18.03,19.305c3.121,20.608,13.096,40.86,27.585,55.831
			l-5.22,20.895l-57.45,14.37C15.975,278.896,0,305.656,0,352.501c0,1.995,0.78,3.914,2.19,5.31S5.505,360,7.5,360h196.561
			c4.141,0,7.5-3.358,7.5-7.499C211.561,348.361,208.2,345.001,204.061,345.001z"/>
	</g>
</g>
<g>
	<g>
		<linearGradient id="SVGID_2_" gradientUnits="userSpaceOnUse" x1="281.209" y1="381.3496" x2="276.0801" y2="237.752">
			<stop  offset="0" style="stop-color:#8E7C57"/>
			<stop  offset="1" style="stop-color:#FFD98D"/>
		</linearGradient>
		<path fill="url(#SVGID_2_)" d="M277.5,360.002c-45.565,0-82.637-37.009-82.637-82.504c0-45.494,37.071-82.498,82.637-82.498
			c45.566,0,82.637,37.01,82.637,82.504C360.137,322.993,323.066,360.002,277.5,360.002z M277.5,206.37
			c-39.3,0-71.267,31.916-71.267,71.134c0,39.22,31.967,71.131,71.267,71.131c39.293,0,71.268-31.919,71.268-71.137
			C348.768,238.273,316.793,206.37,277.5,206.37z"/>
	</g>
	<linearGradient id="SVGID_3_" gradientUnits="userSpaceOnUse" x1="278.877" y1="316.0479" x2="276.1234" y2="238.9544">
		<stop  offset="0" style="stop-color:#8E7C57"/>
		<stop  offset="1" style="stop-color:#FFD98D"/>
	</linearGradient>
	<polygon fill="url(#SVGID_3_)" points="281.338,273.656 281.338,239.043 273.662,239.043 273.662,273.656 239.042,273.656 
		239.042,281.346 273.662,281.346 273.662,315.96 281.338,315.96 281.338,281.346 315.959,281.346 315.959,273.656 	"/>
</g>
</svg>
