<?xml version="1.0" encoding="utf-8"?>
<!-- Generator: Adobe Illustrator 16.0.0, SVG Export Plug-In . SVG Version: 6.00 Build 0)  -->
<!DOCTYPE svg PUBLIC "-//W3C//DTD SVG 1.1//EN" "http://www.w3.org/Graphics/SVG/1.1/DTD/svg11.dtd">
<svg version="1.1" id="Layer_3" xmlns="http://www.w3.org/2000/svg" xmlns:xlink="http://www.w3.org/1999/xlink" x="0px" y="0px"
	 width="360px" height="360px" viewBox="0 0 360 360" enable-background="new 0 0 360 360" xml:space="preserve">
<g>
	<linearGradient id="SVGID_1_" gradientUnits="userSpaceOnUse" x1="216.2969" y1="400.8848" x2="205.2969" y2="78.8848">
		<stop  offset="0" style="stop-color:#8E7C57"/>
		<stop  offset="1" style="stop-color:#FFD98D"/>
	</linearGradient>
	<path fill="url(#SVGID_1_)" d="M237.871,190.685c-3.722,0-6.732-3.012-6.732-6.727c0-29.41-23.921-53.324-53.325-53.324
		c-3.722,0-6.732-3.019-6.732-6.733s3.011-6.733,6.732-6.733c36.821,0,66.791,29.964,66.791,66.791
		C244.604,187.687,241.594,190.685,237.871,190.685z"/>
</g>
<g>
	<linearGradient id="SVGID_2_" gradientUnits="userSpaceOnUse" x1="247.2393" y1="399.8271" x2="236.2393" y2="77.8271">
		<stop  offset="0" style="stop-color:#8E7C57"/>
		<stop  offset="1" style="stop-color:#FFD98D"/>
	</linearGradient>
	<path fill="url(#SVGID_2_)" d="M297.036,190.711c-3.709,0-6.733-3.038-6.733-6.739c0-61.604-50.116-111.727-111.728-111.727
		c-3.714,0-6.731-3.019-6.731-6.733s3.018-6.733,6.731-6.733c69.027,0,125.194,56.153,125.194,125.193
		C303.77,187.687,300.757,190.711,297.036,190.711z"/>
</g>
<g>
	<linearGradient id="SVGID_3_" gradientUnits="userSpaceOnUse" x1="276.291" y1="398.835" x2="265.291" y2="76.835">
		<stop  offset="0" style="stop-color:#8E7C57"/>
		<stop  offset="1" style="stop-color:#FFD98D"/>
	</linearGradient>
	<path fill="url(#SVGID_3_)" d="M353.267,190.685c-3.721,0-6.733-3.012-6.733-6.727c0-92.631-75.352-167.989-167.97-167.989
		c-3.715,0-6.733-3.013-6.733-6.733c0-3.715,3.019-6.733,6.733-6.733C278.599,2.502,360,83.903,360,183.958
		C360,187.687,356.988,190.685,353.267,190.685z"/>
</g>
<g>
	<linearGradient id="SVGID_4_" gradientUnits="userSpaceOnUse" x1="160.0859" y1="402.8047" x2="149.086" y2="80.8047">
		<stop  offset="0" style="stop-color:#8E7C57"/>
		<stop  offset="1" style="stop-color:#FFD98D"/>
	</linearGradient>
	<path fill="url(#SVGID_4_)" d="M206.403,357.498c-37.302,0-74.662-14.216-97.512-37.058l-71.814-71.815
		c-40.411-40.41-53.271-126.303-10.651-168.937l23.796-24.479c0.605-0.617,6.193-6.154,14.149-6.154
		c3.367,0,8.402,1.025,13.309,5.924c5.799,5.818,39.207,44.601,45.861,61.288c13.387,33.579-7.002,49.623-20.481,60.242
		c-5.451,4.287-11.078,8.718-11.27,11.993c-0.118,1.973,1.71,4.971,5.168,8.416l61.596,61.624c3.781,3.773,7.068,5.628,10.074,5.628
		c5.181,0,11.447-5.628,18.056-11.559c10.317-9.272,23.151-20.791,41.707-20.791c6.496,0,13.359,1.446,20.344,4.338
		c15.504,6.445,41.727,31.615,52.272,42.136c5.958,5.956,7.049,11.9,6.917,15.819c-0.302,8.797-6.733,14.663-7.469,15.293
		l-22.133,22.146C261.583,348.28,236.045,357.498,206.403,357.498z M64.371,62.534c-1.939,0-3.985,1.578-4.55,2.13l-23.81,24.479
		C-0.881,126.057,11.224,203.73,46.599,239.104l71.814,71.814c20.106,20.107,54.647,33.112,87.99,33.112
		c26.051,0,48.184-7.81,62.386-22l22.46-22.461c1.079-0.985,3.13-3.445,3.183-5.996c0.066-1.788-0.946-3.734-2.971-5.76
		c-15.309-15.255-37.032-34.705-47.908-39.202c-5.404-2.234-10.375-3.326-15.188-3.326c-13.4,0-23.223,8.811-32.719,17.331
		c-8.574,7.707-16.701,15.019-27.043,15.019l0,0c-6.733,0-13.145-3.129-19.582-9.574l-61.597-61.623
		c-6.477-6.47-9.449-12.611-9.086-18.752c0.564-9.291,8.252-15.347,16.403-21.758c13.355-10.507,25.96-20.442,16.308-44.665
		c-5.28-13.216-35.849-49.695-42.89-56.752C66.166,62.534,64.818,62.534,64.371,62.534z"/>
</g>
</svg>
