<?xml version="1.0" encoding="utf-8"?>
<!-- Generator: Adobe Illustrator 16.0.0, SVG Export Plug-In . SVG Version: 6.00 Build 0)  -->
<!DOCTYPE svg PUBLIC "-//W3C//DTD SVG 1.1//EN" "http://www.w3.org/Graphics/SVG/1.1/DTD/svg11.dtd">
<svg version="1.1" id="Layer_3" xmlns="http://www.w3.org/2000/svg" xmlns:xlink="http://www.w3.org/1999/xlink" x="0px" y="0px"
	 width="360px" height="360px" viewBox="0 0 360 360" enable-background="new 0 0 360 360" xml:space="preserve">
<g>
	<linearGradient id="SVGID_1_" gradientUnits="userSpaceOnUse" x1="184.668" y1="383.7461" x2="177.8701" y2="40.2617">
		<stop  offset="0" style="stop-color:#8E7C57"/>
		<stop  offset="1" style="stop-color:#FFD98D"/>
	</linearGradient>
	<path fill="url(#SVGID_1_)" d="M179.996,360c-33.291,0-148.044-120.321-148.044-211.962C31.952,66.413,98.358,0,179.996,0
		c81.646,0,148.052,66.399,148.052,148.038C328.048,239.679,213.301,360,179.996,360z M179.996,21.525
		c-69.75,0-126.513,56.749-126.513,126.513c0,86.188,108.169,189.188,126.513,190.41c18.345-1.249,126.513-104.222,126.513-190.41
		C306.509,78.274,249.761,21.525,179.996,21.525z"/>
</g>
<g>
	<linearGradient id="SVGID_2_" gradientUnits="userSpaceOnUse" x1="184.6045" y1="383.7471" x2="177.8066" y2="40.2627">
		<stop  offset="0" style="stop-color:#8E7C57"/>
		<stop  offset="1" style="stop-color:#FFD98D"/>
	</linearGradient>
	<path fill="url(#SVGID_2_)" d="M179.996,225.763c-41.267,0-74.849-33.582-74.849-74.85c0-41.267,33.568-74.85,74.849-74.85
		c41.281,0,74.85,33.569,74.85,74.85C254.846,192.194,221.264,225.763,179.996,225.763z M179.996,97.596
		c-29.405,0-53.318,23.919-53.318,53.317c0,29.406,23.913,53.312,53.318,53.312c29.398,0,53.299-23.919,53.299-53.312
		C233.295,121.528,209.395,97.596,179.996,97.596z"/>
</g>
</svg>
