<?xml version="1.0" encoding="UTF-8"?>
<svg id="Layer_1" data-name="Layer 1" xmlns="http://www.w3.org/2000/svg" viewBox="0 0 72 72">
  <defs>
    <style>
      .cls-1 {
        stroke-width: 1.41px;
      }

      .cls-1, .cls-2 {
        stroke: #003974;
      }

      .cls-1, .cls-2, .cls-3 {
        fill: none;
        stroke-miterlimit: 10;
      }

      .cls-2, .cls-3 {
        stroke-width: 1.81px;
      }

      .cls-3 {
        stroke: #ee323e;
      }

      .cls-4 {
        fill: #e52633;
      }
    </style>
  </defs>
  <path class="cls-2" d="m60.07,34.39l-7.72,3.66-.42.16c-.55-.97-1.48-1.62-2.77-1.62h-7.87c-1.8,0-4.55-2.62-6.72-2.62h-7.71c-3.17,0-6,2.6-7.6,4.08-2.47,2.47-6.62,5.88-6.62,5.88l12.06,12.07c1.97-1.97,3.5-2.36,5.51-2.36h15.74c2.46,0,4.9-.75,6.64-2.49l13.05-13.05,3.71-9.27c-2.26-2.26-7.42.15-9.27,5.57Z"/>
  <path class="cls-2" d="m35.45,44.46h13.71c2.17,0,3.34-1.71,3.34-3.88v-.03c0-2.17-1.17-3.96-3.34-3.96h-7.87c-1.8,0-4.55-2.62-6.72-2.62h-7.71c-3.17,0-6,2.6-7.6,4.08-2.47,2.47-5.91,6.39-5.91,6.39l12.06,12.07c1.97-1.97,2.78-2.87,4.8-2.87h15.74c2.46,0,4.9-.75,6.64-2.49l13.05-13.05,3.71-9.27c-2.26-2.26-7.42.15-9.27,5.57l-7.71,3.66"/>
  <rect class="cls-2" x="9.55" y="42.24" width="11.13" height="24.11" transform="translate(-33.97 26.59) rotate(-45)"/>
  <line class="cls-1" x1="13.15" y1="51.02" x2="10.53" y2="48.4"/>
  <circle class="cls-3" cx="46.74" cy="17.27" r="14.23"/>
  <path class="cls-4" d="m41.75,10.56h9.04c.05,0,.08.03.08.08v.86c0,.05-.03.08-.08.08h-3.4v.08c.48.26.86.8,1.13,1.61l.04.28h2.24c.05,0,.08.03.08.08v.86c0,.05-.03.08-.08.08h-2.15c0,.96-.59,1.9-1.77,2.81-1.04.6-1.79.9-2.23.9,0,.03-.03.04-.08.04l4.86,6.29v.08h-1.84s-1.9-2.43-5.63-7.3v-.04h.58c2.06,0,3.3-.74,3.72-2.23.03-.18.04-.32.04-.43v-.11h-4.54c-.05,0-.08-.03-.08-.08v-.86c0-.05.03-.08.08-.08h4.5c-.15-.58-.48-1.05-.97-1.41-.69-.36-1.32-.54-1.88-.54h-1.64c-.05,0-.08-.03-.08-.08v-.86c0-.05.03-.08.08-.08Z"/>
</svg>