<?xml version="1.0" encoding="UTF-8"?>
<svg id="Layer_1" data-name="Layer 1" xmlns="http://www.w3.org/2000/svg" xmlns:xlink="http://www.w3.org/1999/xlink" viewBox="0 0 72 72">
  <defs>
    <style>
      .cls-1 {
        fill: #003974;
      }

      .cls-2 {
        clip-path: url(#clippath);
      }

      .cls-3, .cls-4 {
        fill: none;
      }

      .cls-4 {
        stroke: #ee323e;
        stroke-miterlimit: 10;
        stroke-width: 1.11px;
      }
    </style>
    <clipPath id="clippath">
      <path class="cls-3" d="m60.04,36.57l-5.94.52-6.46,4.28.09,7.07,7.51,8.21s-38.61,9.17-38.61,8.47S2.22,33.87,2.22,33.87l2.36-25.42L23.18,2.16l29.74,1.18,13.36,26.86-6.25,6.38Z"/>
    </clipPath>
  </defs>
  <path class="cls-1" d="m38.52,55.41c-.52.13-1.04.26-1.58.36-.05,0-.11.02-.17.02.92-.76,1.76-1.59,2.57-2.46,3.8-5.62,3.58-5.21,6.04-9.64,1.38-3.5,2.19-7.3,2.32-11.31h9.47c-.09,1.88-.45,3.69-.93,5.45.86-.2,1.73-.35,2.63-.46.47-1.99.74-4.05.74-6.17,0-6.17-2.09-11.85-5.57-16.45-.03-.04-.03-.1-.06-.14-.1-.14-.23-.25-.33-.39-.33-.42-.68-.81-1.03-1.21-.32-.35-.63-.72-.96-1.06-.11-.11-.23-.21-.35-.32-1.11-1.09-2.3-2.08-3.56-2.95-.05-.04-.1-.08-.16-.12-.63-.43-1.27-.81-1.93-1.18-.15-.09-.3-.18-.45-.26-.63-.34-1.27-.66-1.93-.95-.2-.09-.41-.18-.62-.26-.63-.27-1.28-.51-1.94-.73-.26-.08-.52-.16-.78-.23-.63-.19-1.27-.37-1.92-.5-.31-.08-.63-.11-.94-.17-1.18-.21-2.37-.34-3.58-.4-.36-.02-.71-.06-1.06-.06h-.02c-.07,0-.14-.01-.22-.01s-.15.01-.22.01h-.01c-.33,0-.65.04-.98.05-1.25.06-2.48.19-3.69.42-.3.05-.61.1-.91.16-.66.14-1.3.33-1.94.52-.25.07-.51.14-.75.22-.67.21-1.32.46-1.96.73-.2.08-.4.17-.6.25-.66.3-1.31.62-1.95.96-.15.08-.29.16-.43.25-.66.38-1.32.77-1.94,1.2-.05.04-.1.08-.14.1-1.26.88-2.46,1.88-3.59,2.97-.11.11-.23.21-.34.32-.33.33-.64.71-.95,1.06-.36.4-.71.8-1.03,1.21-.11.13-.23.25-.33.39-.04.04-.04.1-.06.14-3.48,4.6-5.57,10.28-5.57,16.45s2.08,11.85,5.56,16.44c.02.04.03.1.07.15.11.15.24.27.36.42.3.38.63.75.95,1.12.34.39.68.77,1.03,1.14.03.03.07.06.1.09,1.2,1.21,2.49,2.28,3.87,3.22.02.02.04.04.07.05.63.44,1.29.84,1.96,1.21.14.08.28.16.41.24.65.35,1.3.67,1.97.97.19.08.39.16.58.25.65.27,1.3.52,1.97.74.24.08.49.15.74.22.65.19,1.29.37,1.96.52.29.06.59.1.89.15,1.26.23,2.54.37,3.85.42.28.01.56.05.84.05h.02c.07,0,.14.02.22.02.07,0,.14-.02.21-.02h.01c.31,0,.62-.04.92-.05,1.27-.05,2.53-.2,3.76-.42.3-.06.6-.1.91-.16.13-.03.25-.07.36-.1.1-.86.25-1.71.43-2.55-.09.02-.19.05-.28.08ZM14,14.08c.26-.27.53-.55.8-.81.34-.33.7-.66,1.06-.98.18-.16.36-.3.54-.45,2.02-1.66,4.29-3,6.76-3.96.13-.05.26-.11.39-.16.54-.2,1.09-.38,1.65-.54.22-.06.43-.12.66-.18.52-.13,1.05-.26,1.58-.37.06-.01.11-.01.17-.03-3.04,2.52-5.48,5.67-7.31,9.21-2.52-.29-4.84-.69-6.83-1.16.18-.2.36-.39.54-.59Zm-2.17,2.61c2.12.57,4.62,1.04,7.4,1.39-1.54,3.66-2.41,7.69-2.54,11.93H7.2c.24-4.94,1.91-9.53,4.63-13.33Zm0,29.04c-2.72-3.8-4.39-8.39-4.63-13.33h9.48c.13,4.25,1,8.28,2.54,11.94-2.78.35-5.28.82-7.4,1.39Zm15.6,10.05c-.53-.1-1.06-.23-1.58-.36-.22-.06-.43-.12-.65-.18-.57-.16-1.12-.34-1.67-.55-.12-.04-.24-.09-.36-.14-2.49-.97-4.79-2.33-6.82-4-.16-.13-.32-.26-.48-.39-.38-.33-.75-.68-1.11-1.02-.25-.25-.49-.5-.73-.74-.2-.21-.39-.42-.58-.63,1.99-.48,4.31-.87,6.83-1.16,1.83,3.54,4.28,6.68,7.31,9.2-.05,0-.11-.02-.17-.02Zm3.56-.46c-3.38-2.34-6.16-5.39-8.17-8.98,2.57-.22,5.33-.36,8.17-.39v9.37Zm0-11.74c-3.24.04-6.37.2-9.28.48-1.58-3.54-2.51-7.47-2.66-11.65h11.94v11.18Zm0-13.55h-11.94c.15-4.17,1.07-8.11,2.66-11.65,2.91.28,6.04.45,9.28.48v11.18Zm0-13.55c-2.84-.02-5.6-.16-8.17-.38,2.01-3.6,4.79-6.65,8.17-8.99v9.37Zm21.54.22c2.72,3.79,4.4,8.39,4.63,13.33h-9.47c-.14-4.24-1.01-8.27-2.54-11.93,2.78-.35,5.27-.82,7.39-1.39Zm-15.6-10.05c.54.1,1.06.23,1.58.37.22.06.44.12.66.18.56.16,1.11.34,1.64.54.13.04.27.1.4.16,2.46.96,4.74,2.31,6.76,3.96.18.15.36.29.54.45.36.31.71.64,1.06.98.28.26.54.54.8.81.19.19.36.39.54.59-1.99.48-4.31.87-6.83,1.16-1.83-3.54-4.27-6.69-7.31-9.21.05.02.11.02.16.03Zm-3.56.46c3.39,2.34,6.16,5.39,8.17,8.99-2.57.22-5.32.36-8.17.38V7.1Zm0,11.74c3.24-.03,6.37-.19,9.28-.48,1.59,3.54,2.52,7.48,2.66,11.65h-11.94v-11.18Zm0,13.55h11.94c-.14,4.18-1.06,8.11-2.66,11.66-2.91-.28-6.03-.45-9.28-.48v-11.18Zm0,13.55c2.85.03,5.6.16,8.17.39-2.01,3.59-4.78,6.65-8.17,8.98v-9.37Z"/>
  <path class="cls-4" d="m20.48,63.12c21.91,16.11,40.42-.33,43.33-12.06,1.72.88,5.96,2.94,5.96,2.94l-6.04-14.65-14.94,4.11,6.34,3.2s-4.94,24.72-34.66,16.46"/>
  <g class="cls-2">
    <path class="cls-1" d="m25.58,55.33c.19.84.33,1.69.43,2.55.12.03.24.08.36.1.31.06.61.1.91.16,1.23.22,2.48.36,3.76.42.31,0,.61.05.92.05h.01c.07,0,.14.02.21.02.07,0,.14-.02.22-.02h.02c.28,0,.56-.04.84-.05,1.31-.05,2.59-.19,3.85-.42.3-.05.6-.09.89-.15.66-.15,1.31-.33,1.96-.52.25-.08.5-.14.74-.22.67-.22,1.32-.47,1.97-.74.19-.08.39-.16.58-.25.67-.3,1.32-.62,1.97-.97.13-.07.27-.16.41-.24.67-.37,1.33-.77,1.96-1.21.03-.01.05-.03.07-.05,1.38-.94,2.67-2.02,3.87-3.22.03-.03.07-.06.1-.09.36-.37.69-.75,1.03-1.14.32-.37.65-.74.95-1.12.12-.14.25-.27.36-.42.04-.04.04-.1.07-.15,3.47-4.59,5.56-10.28,5.56-16.44s-2.08-11.85-5.57-16.45c-.02-.04-.02-.1-.06-.14-.1-.14-.22-.25-.33-.39-.33-.42-.68-.81-1.03-1.21-.31-.35-.63-.72-.95-1.06-.11-.11-.23-.21-.34-.32-1.12-1.09-2.32-2.09-3.59-2.97-.04-.03-.09-.07-.14-.1-.62-.43-1.28-.82-1.94-1.2-.14-.08-.28-.16-.43-.25-.64-.34-1.29-.66-1.95-.96-.2-.08-.4-.17-.6-.25-.64-.27-1.29-.51-1.96-.73-.25-.08-.5-.15-.75-.22-.64-.19-1.29-.38-1.94-.52-.3-.06-.61-.1-.91-.16-1.21-.22-2.44-.36-3.69-.42-.33,0-.65-.05-.98-.05h-.01c-.07,0-.15-.01-.22-.01s-.14.01-.22.01h-.02c-.36,0-.71.04-1.06.06-1.21.06-2.4.19-3.58.4-.31.06-.63.1-.94.17-.65.13-1.29.32-1.92.5-.26.08-.52.15-.78.23-.66.21-1.3.46-1.94.73-.21.08-.42.17-.62.26-.66.29-1.3.61-1.93.95-.16.08-.31.17-.45.26-.66.37-1.3.75-1.93,1.18-.06.04-.11.08-.16.12-1.26.88-2.45,1.86-3.56,2.95-.12.1-.24.21-.35.32-.33.33-.64.71-.96,1.06-.35.4-.7.8-1.03,1.21-.1.13-.23.25-.33.39-.03.04-.03.1-.06.14-3.48,4.6-5.57,10.28-5.57,16.45,0,2.12.27,4.19.74,6.17.89.1,1.77.25,2.63.46-.48-1.76-.84-3.56-.93-5.45h9.47c.13,4.01.94,7.81,2.32,11.31,2.46,4.42,2.24,4.02,6.04,9.64.8.86,1.65,1.7,2.57,2.46-.06,0-.12-.02-.17-.02-.54-.1-1.06-.23-1.58-.36-.1-.03-.19-.06-.28-.08ZM50.92,14.67c-1.99.48-4.31.87-6.83,1.16-1.83-3.54-4.28-6.69-7.31-9.21.06.02.11.02.17.03.53.1,1.06.23,1.58.37.22.06.44.12.66.18.56.16,1.11.34,1.65.54.13.04.26.1.39.16,2.47.96,4.75,2.3,6.76,3.96.18.15.37.29.54.45.36.31.71.64,1.06.98.27.26.54.54.8.81.18.19.36.39.54.59Zm6.26,15.35h-9.48c-.13-4.24-1-8.27-2.54-11.93,2.78-.35,5.28-.82,7.4-1.39,2.72,3.79,4.39,8.39,4.63,13.33Zm-12.03,14.32c1.54-3.66,2.41-7.69,2.54-11.94h9.48c-.24,4.95-1.91,9.53-4.63,13.33-2.12-.57-4.62-1.04-7.4-1.39Zm-8.38,11.46c3.04-2.52,5.48-5.66,7.31-9.2,2.52.29,4.84.68,6.83,1.16-.19.21-.38.42-.58.63-.24.25-.48.5-.73.74-.36.34-.73.69-1.11,1.02-.16.13-.31.26-.48.39-2.03,1.67-4.33,3.03-6.82,4-.13.05-.25.1-.36.14-.54.21-1.1.39-1.67.55-.22.06-.43.12-.65.18-.52.13-1.05.26-1.58.36-.06,0-.12.02-.17.02Zm-3.39-9.85c2.84.03,5.6.16,8.17.39-2.01,3.59-4.79,6.64-8.17,8.98v-9.37Zm0-13.55h11.94c-.15,4.18-1.07,8.11-2.66,11.65-2.91-.28-6.04-.44-9.28-.48v-11.18Zm0-13.55c3.24-.03,6.37-.19,9.28-.48,1.58,3.54,2.51,7.48,2.66,11.65h-11.94v-11.18Zm0-11.74c3.38,2.34,6.16,5.39,8.17,8.99-2.57.22-5.33.36-8.17.38V7.1Zm-14.15,10.98c-1.53,3.66-2.4,7.69-2.54,11.93H7.21c.23-4.94,1.91-9.53,4.63-13.33,2.12.57,4.61,1.04,7.39,1.39Zm8.38-11.47c-3.04,2.52-5.48,5.67-7.31,9.21-2.52-.29-4.84-.69-6.83-1.16.17-.2.35-.39.54-.59.26-.27.52-.55.8-.81.34-.33.69-.66,1.06-.98.18-.16.36-.3.54-.45,2.02-1.65,4.3-3,6.76-3.96.13-.05.27-.11.4-.16.54-.2,1.09-.38,1.64-.54.22-.06.44-.12.66-.18.52-.13,1.04-.26,1.58-.37.05-.01.11-.01.16-.03Zm3.4,9.85c-2.85-.02-5.6-.16-8.17-.38,2.01-3.6,4.78-6.65,8.17-8.99v9.37Zm0,13.55h-11.94c.14-4.17,1.06-8.11,2.66-11.65,2.91.28,6.03.45,9.28.48v11.18Zm0,13.55c-3.24.04-6.37.2-9.28.48-1.59-3.55-2.52-7.48-2.66-11.66h11.94v11.18Zm0,11.74c-3.39-2.34-6.16-5.39-8.17-8.98,2.57-.22,5.32-.36,8.17-.39v9.37Z"/>
  </g>
</svg>