<?xml version="1.0" encoding="UTF-8"?>
<svg id="Layer_1" data-name="Layer 1" xmlns="http://www.w3.org/2000/svg" viewBox="0 0 72 72">
  <defs>
    <style>
      .cls-1 {
        stroke: #ec1c24;
      }

      .cls-1, .cls-2 {
        fill: none;
        stroke-miterlimit: 10;
        stroke-width: 1.66px;
      }

      .cls-3 {
        fill: #ec1c24;
        stroke-width: 0px;
      }

      .cls-2 {
        stroke: #003974;
      }
    </style>
  </defs>
  <g>
    <path class="cls-2" d="m29.2,59.55c-.61.04-1.22.07-1.84.07-.35,0-.7,0-1.04-.02v.02c-11.07,0-19.38-7.23-19.38-16.49,0-7.72,8.1-16.6,16.61-25.04"/>
    <path class="cls-2" d="m41.97,32.9c-3.16-4.88-7.95-9.92-12.89-14.81"/>
    <path class="cls-2" d="m23.54,18.09s-7.71-9.53-7.51-9.93c1.77-3.58,5.45-2.89,8.9-1.9,4.91,1.4,9.64,1.14,10.58,1.1.08,1.46-6.43,10.74-6.43,10.74"/>
    <line class="cls-2" x1="26.31" y1="18.09" x2="20.77" y2="18.09"/>
    <line class="cls-2" x1="26.31" y1="18.09" x2="31.85" y2="18.09"/>
    <ellipse class="cls-1" cx="42.92" cy="48.54" rx="9.69" ry="4.15"/>
    <path class="cls-1" d="m52.61,48.54v6.92c0,2.29-4.34,4.15-9.69,4.15s-9.69-1.86-9.69-4.15v-6.92"/>
    <path class="cls-1" d="m33.23,55.47v6.92c0,2.29,4.34,4.15,9.69,4.15s9.69-1.86,9.69-4.15v-6.92"/>
    <path class="cls-1" d="m65.07,41.62v6.92c0,2.09-3.61,3.82-8.31,4.11"/>
    <ellipse class="cls-1" cx="55.38" cy="34.7" rx="9.69" ry="4.15"/>
    <line class="cls-1" x1="45.69" y1="40.24" x2="45.69" y2="34.7"/>
    <path class="cls-1" d="m65.07,34.7v6.92c0,2.17-3.88,3.95-8.83,4.14"/>
    <path class="cls-1" d="m56.76,59.58c4.7-.29,8.31-2.02,8.31-4.11v-6.92"/>
  </g>
  <path class="cls-3" d="m20.08,27.27h12.74c.07,0,.11.04.11.11v1.21c0,.07-.04.11-.11.11h-4.8v.11c.68.37,1.21,1.12,1.59,2.26l.05.39h3.15c.07,0,.11.04.11.11v1.21c0,.07-.04.11-.11.11h-3.03c0,1.36-.83,2.68-2.49,3.96-1.47.84-2.52,1.27-3.14,1.27,0,.04-.04.05-.11.05l6.84,8.86v.11h-2.6s-2.67-3.43-7.93-10.29v-.05h.82c2.91,0,4.66-1.05,5.24-3.14.04-.25.05-.45.05-.61v-.16h-6.4c-.07,0-.11-.04-.11-.11v-1.21c0-.07.04-.11.11-.11h6.35c-.22-.82-.67-1.48-1.37-1.99-.97-.51-1.85-.77-2.65-.77h-2.32c-.07,0-.11-.04-.11-.11v-1.21c0-.07.04-.11.11-.11Z"/>
</svg>