<?xml version="1.0" encoding="UTF-8"?>
<svg id="Layer_1" data-name="Layer 1" xmlns="http://www.w3.org/2000/svg" viewBox="0 0 72 72">
  <defs>
    <style>
      .cls-1 {
        stroke: #ec1c24;
      }

      .cls-1, .cls-2 {
        fill: none;
        stroke-miterlimit: 10;
        stroke-width: 1.66px;
      }

      .cls-3 {
        fill: #ec1c24;
        stroke-width: 0px;
      }

      .cls-2 {
        stroke: #003974;
      }
    </style>
  </defs>
  <g>
    <line class="cls-2" x1="6.67" y1="36.05" x2="26.17" y2="40.59"/>
    <line class="cls-2" x1="65.33" y1="36.43" x2="45.66" y2="40.8"/>
    <rect class="cls-1" x="25.97" y="31.92" width="19.77" height="16.71" rx=".62" ry=".62"/>
    <path class="cls-2" d="m24.19,17.25v-3.23c0-2.04,1.75-3.7,3.9-3.7h15.51c2.16,0,3.9,1.66,3.9,3.7v3.23"/>
    <path class="cls-2" d="m46.26,61.68H10.96c-2.37,0-4.29-1.92-4.29-4.29V21.54c0-2.37,1.92-4.29,4.29-4.29h49.77c2.37,0,4.29,1.92,4.29,4.29v34.62s.5,5.17-4.64,5.31l-14.11.21Z"/>
  </g>
  <path class="cls-3" d="m32.09,34.23h7.61s.06.03.06.06v.72s-.02.06-.06.06h-2.86v.06c.41.22.72.67.95,1.35l.03.23h1.88s.06.03.06.06v.72s-.02.06-.06.06h-1.81c0,.81-.5,1.6-1.49,2.37-.88.5-1.5.76-1.87.76,0,.02-.02.03-.06.03l4.09,5.29v.06h-1.55s-1.6-2.05-4.74-6.15v-.03h.49c1.74,0,2.78-.62,3.13-1.87.02-.15.03-.27.03-.36v-.1h-3.82s-.06-.02-.06-.06v-.72s.03-.06.06-.06h3.79c-.13-.49-.4-.89-.82-1.19-.58-.31-1.11-.46-1.59-.46h-1.38s-.06-.02-.06-.06v-.72s.03-.06.06-.06Z"/>
</svg>